<svg xmlns="http://www.w3.org/2000/svg" width="500" height="500" viewBox="0 0 500 500" version="1.1"><path d="" stroke="none" fill="#d93c32" fill-rule="evenodd"/><path d="M 70 161.731 C 68.075 161.958, 66.073 162.561, 65.550 163.071 C 65.027 163.582, 63.426 164, 61.991 164 C 60.556 164, 58.509 164.661, 57.441 165.468 C 56.374 166.276, 54.706 166.951, 53.736 166.968 C 52.143 166.997, 50.568 167.640, 46 170.128 C 45.175 170.577, 42.925 171.703, 41 172.631 C 39.075 173.558, 35.394 176.045, 32.821 178.158 C 30.247 180.271, 27.712 182, 27.187 182 C 25.787 182, 12.991 197.023, 11.820 200.043 C 11.446 201.007, 10.659 202.093, 10.070 202.457 C 9.482 202.820, 9 203.991, 9 205.059 C 9 206.127, 8.550 207, 8 207 C 7.450 207, 7 207.845, 7 208.878 C 7 209.910, 6.325 211.315, 5.500 212 C 4.675 212.685, 4 213.871, 4 214.636 C 4 215.401, 3.605 216.809, 3.123 217.764 C 2.640 218.719, 1.740 221.107, 1.123 223.071 L 0 226.642 0.044 247.071 L 0.088 267.500 1.329 272.202 C 2.011 274.787, 2.892 277.225, 3.285 277.618 C 3.678 278.012, 4.014 279.271, 4.032 280.417 C 4.049 281.562, 4.724 283.374, 5.532 284.441 C 6.339 285.509, 7 287.196, 7 288.191 C 7 289.186, 7.450 290, 8 290 C 8.550 290, 9 290.845, 9 291.878 C 9 292.910, 9.675 294.315, 10.500 295 C 11.325 295.685, 12 296.697, 12 297.250 C 12 299.485, 22.180 311.788, 26.684 314.997 C 29.333 316.885, 32.095 319.007, 32.821 319.714 C 33.548 320.422, 34.748 321, 35.488 321 C 36.228 321, 36.983 321.409, 37.167 321.910 C 37.588 323.061, 52.893 331, 54.690 331 C 55.425 331, 56.809 331.390, 57.764 331.866 C 58.719 332.342, 61.075 333.342, 63 334.089 L 66.500 335.445 84.898 335.766 L 103.296 336.088 106.549 334.544 C 108.338 333.695, 110.720 333, 111.842 333 C 112.964 333, 114.160 332.550, 114.500 332 C 114.840 331.450, 116.329 330.986, 117.809 330.968 C 119.289 330.951, 121.374 330.276, 122.441 329.468 C 123.509 328.661, 125.159 328, 126.108 328 C 127.057 328, 127.983 327.663, 128.167 327.250 C 128.350 326.837, 130.557 325.496, 133.070 324.270 L 137.641 322.039 147.820 311.838 C 153.419 306.228, 158 301.239, 158 300.752 C 158 300.265, 159.038 298.434, 160.307 296.683 C 162.539 293.603, 164.493 289.746, 166.987 283.500 C 167.646 281.850, 168.818 279.226, 169.593 277.669 C 170.367 276.112, 171 273.518, 171 271.905 C 171 270.293, 171.428 268.191, 171.951 267.236 C 172.474 266.281, 173.181 262.920, 173.521 259.766 C 173.861 256.612, 174.558 253.773, 175.070 253.457 C 175.581 253.141, 176 249.785, 176 246 C 176 242.215, 176.400 238.871, 176.890 238.568 C 177.379 238.266, 178.006 236.552, 178.284 234.759 C 180.683 219.277, 205.101 193, 217.090 193 C 218.076 193, 219.160 192.550, 219.500 192 L 220.118 191 235.059 191 L 250 191 250 192 C 250 192.550, 250.814 193, 251.809 193 C 252.804 193, 254.491 193.661, 255.559 194.468 C 256.626 195.276, 258.512 195.951, 259.750 195.968 C 260.988 195.986, 262 196.348, 262 196.773 C 262 197.198, 263.662 198.435, 265.694 199.523 C 270.074 201.867, 282.591 213.946, 284.025 217.212 C 284.578 218.470, 285.890 220.850, 286.942 222.500 C 287.993 224.150, 288.887 226.422, 288.927 227.550 C 288.967 228.677, 289.476 230.076, 290.058 230.658 C 290.639 231.239, 291.379 234.267, 291.700 237.387 C 292.022 240.506, 292.672 243.297, 293.143 243.588 C 294.343 244.330, 294.218 254.747, 293 255.500 C 292.450 255.840, 291.997 258.004, 291.994 260.309 C 291.990 262.614, 291.315 265.789, 290.494 267.364 C 289.672 268.940, 289 270.862, 289 271.636 C 289 275.661, 272.009 294.910, 267.072 296.477 C 265.933 296.839, 265 297.554, 265 298.067 C 265 298.580, 264.429 299, 263.732 299 C 263.035 299, 260.809 300.125, 258.785 301.500 C 256.762 302.875, 254.237 304, 253.175 304 C 252.114 304, 250.685 304.675, 250 305.500 C 249.315 306.325, 247.487 307, 245.937 307 C 244.386 307, 242.840 307.450, 242.500 308 L 241.882 309 235.602 309 L 229.322 309 225.661 312.127 C 223.648 313.847, 222 316.011, 222 316.936 C 222 317.861, 221.339 319.491, 220.532 320.559 C 218.618 323.089, 218.602 327.425, 220.500 329 C 221.325 329.685, 222 331.074, 222 332.087 C 222 333.101, 222.870 334.395, 223.934 334.965 L 225.869 336 238.820 336 L 251.771 336 254.636 334.506 C 256.211 333.685, 258.486 333.010, 259.691 333.006 C 260.896 333.003, 262.160 332.550, 262.500 332 C 262.840 331.450, 264.130 331, 265.368 331 C 266.605 331, 268.491 330.339, 269.559 329.532 C 270.626 328.724, 272.288 328.049, 273.250 328.032 C 274.212 328.014, 275 327.550, 275 327 C 275 326.450, 275.845 326, 276.878 326 C 277.910 326, 279.315 325.325, 280 324.500 C 280.685 323.675, 281.799 323, 282.476 323 C 283.154 323, 284.922 321.875, 286.405 320.500 C 287.889 319.125, 289.504 318, 289.995 318 C 292.487 318, 311 298.161, 311 295.490 C 311 295.162, 312.125 293.238, 313.500 291.215 C 314.875 289.191, 316 286.515, 316 285.268 C 316 284.021, 316.450 283, 317 283 C 317.550 283, 318.003 282.212, 318.006 281.250 C 318.010 280.288, 318.685 278.211, 319.506 276.636 L 321 273.771 321 268.945 C 321 266.290, 321.450 263.840, 322 263.500 L 323 262.882 323 251.141 L 323 239.400 322.088 238.450 C 321.586 237.928, 320.950 235.025, 320.674 232 C 320.082 225.506, 317.870 217, 316.773 217 C 316.348 217, 316 215.961, 316 214.691 C 316 213.421, 315.339 211.509, 314.532 210.441 C 313.724 209.374, 313.049 207.713, 313.032 206.750 C 313.014 205.787, 312.599 205, 312.108 205 C 311.618 205, 310.944 203.912, 310.610 202.583 C 310.277 201.253, 308.428 198.679, 306.502 196.863 C 304.576 195.046, 303 193.052, 303 192.432 C 303 190.114, 287.079 176.369, 280.191 172.740 C 278.161 171.671, 276.073 170.391, 275.550 169.898 C 275.028 169.404, 273.565 169, 272.300 169 C 271.035 169, 270 168.550, 270 168 C 270 167.450, 269.186 167, 268.191 167 C 267.196 167, 265.509 166.339, 264.441 165.532 C 263.374 164.724, 260.902 164.049, 258.950 164.032 C 256.997 164.014, 254.837 163.438, 254.150 162.750 L 252.900 161.500 234.283 161.500 L 215.667 161.500 215.250 162.750 L 214.833 164 210.539 164 L 206.245 164 205 165.500 C 204.315 166.325, 202.712 167, 201.437 167 C 200.161 167, 198.840 167.450, 198.500 168 C 198.160 168.550, 197.041 169, 196.012 169 C 194.984 169, 193.468 169.675, 192.643 170.500 C 191.818 171.325, 190.816 172, 190.416 172 C 190.016 172, 188.214 173.125, 186.411 174.500 C 184.608 175.875, 182.670 177, 182.103 177 C 180.556 177, 162 195.770, 162 197.335 C 162 198.080, 161.111 199.494, 160.025 200.477 C 158.939 201.460, 157.107 204.342, 155.954 206.882 C 154.800 209.422, 153.439 212.281, 152.928 213.236 C 152.418 214.191, 151.997 215.991, 151.994 217.236 C 151.990 218.481, 151.315 220.789, 150.494 222.364 L 149 225.229 149 230.055 C 149 232.710, 148.604 235.127, 148.120 235.426 C 147.635 235.725, 146.920 239.800, 146.530 244.481 C 146.140 249.163, 145.411 253.246, 144.911 253.555 C 144.410 253.865, 144 255.865, 144 258 C 144 260.135, 143.550 262.160, 143 262.500 C 142.450 262.840, 142 264.386, 142 265.937 C 142 267.487, 141.325 269.315, 140.500 270 C 139.675 270.685, 139 272.090, 139 273.122 C 139 274.155, 138.550 275, 138 275 C 137.450 275, 137 275.673, 137 276.495 C 137 281.530, 119.704 297.629, 109 302.556 C 100.836 306.314, 98.755 307, 95.525 307 C 93.651 307, 91.840 307.450, 91.500 308 C 90.746 309.219, 82.328 309.340, 81.588 308.143 C 81.297 307.671, 78.830 307.022, 76.106 306.699 C 73.381 306.376, 70.331 305.689, 69.326 305.171 C 68.322 304.653, 64.877 302.940, 61.672 301.365 C 58.467 299.789, 55.092 297.825, 54.172 297 C 53.252 296.175, 50.619 294.277, 48.320 292.782 C 46.021 291.287, 43.546 288.969, 42.820 287.630 C 42.094 286.292, 40.319 283.690, 38.877 281.848 C 35.257 277.229, 31 269.292, 31 267.165 C 31 266.194, 30.440 264.840, 29.756 264.156 L 28.511 262.911 28.148 251.475 L 27.785 240.038 29.528 234.769 C 31.318 229.359, 36.038 218.892, 37.090 218 C 37.414 217.725, 38.998 215.664, 40.609 213.419 C 45.375 206.779, 48.357 203.583, 51.123 202.154 C 52.556 201.413, 54.894 199.726, 56.320 198.404 C 57.746 197.082, 59.720 195.986, 60.706 195.968 C 61.693 195.951, 63.374 195.276, 64.441 194.468 C 65.509 193.661, 67.196 193, 68.191 193 C 69.186 193, 70 192.550, 70 192 L 70 191 74.378 191 C 76.786 191, 80.371 190.325, 82.346 189.500 C 84.320 188.675, 87.006 188, 88.314 188 C 91.377 188, 97.017 185.182, 99.217 182.552 L 100.933 180.500 100.967 174.903 L 101 169.307 97.594 165.799 L 94.187 162.292 90.344 161.657 C 86.318 160.992, 75.971 161.030, 70 161.731 M 397 161.682 C 395.075 161.936, 393.072 162.561, 392.550 163.071 C 392.028 163.582, 390.395 164, 388.922 164 C 387.450 164, 385.685 164.675, 385 165.500 C 384.315 166.325, 383.023 166.998, 382.128 166.996 C 379.067 166.987, 365.866 174.405, 362.180 178.204 C 360.156 180.291, 358.033 181.999, 357.462 181.999 C 356.144 182, 347 191.234, 347 192.564 C 347 193.112, 345.538 194.954, 343.750 196.659 C 341.962 198.363, 339.663 201.500, 338.640 203.629 C 337.617 205.758, 336.392 208.175, 335.918 209 C 335.443 209.825, 334.328 212.075, 333.438 214 C 332.549 215.925, 331.186 218.694, 330.410 220.154 C 329.635 221.614, 329 224.337, 329 226.204 C 329 228.072, 328.438 230.163, 327.750 230.850 L 326.500 232.101 326.500 249.501 L 326.500 266.900 327.750 268.150 C 328.438 268.838, 329 270.799, 329 272.509 C 329 274.219, 329.661 276.491, 330.468 277.559 C 331.276 278.626, 331.984 280.400, 332.041 281.500 C 332.099 282.600, 333.019 284.850, 334.085 286.500 C 335.151 288.150, 336.296 290.288, 336.628 291.250 C 336.961 292.212, 337.631 293, 338.117 293 C 338.602 293, 339 293.606, 339 294.347 C 339 295.088, 339.943 296.775, 341.095 298.097 C 342.248 299.419, 343.798 301.668, 344.541 303.095 C 346.256 306.392, 361.724 321, 363.500 321 C 364.233 321, 364.983 321.398, 365.167 321.883 C 365.687 323.262, 380.776 331, 382.944 331 C 384.010 331, 385.160 331.450, 385.500 332 C 385.840 332.550, 387.104 333.003, 388.309 333.006 C 389.514 333.010, 391.789 333.685, 393.364 334.506 L 396.229 336 414.364 335.968 L 432.500 335.936 434.441 334.468 C 435.509 333.661, 437.620 333, 439.132 333 C 440.645 333, 442.160 332.550, 442.500 332 C 442.840 331.450, 443.924 331, 444.910 331 C 446.876 331, 455.569 326.649, 458.079 324.409 C 458.947 323.634, 460.106 323, 460.654 323 C 461.203 323, 462.708 321.875, 464 320.500 C 465.292 319.125, 466.889 318, 467.549 318 C 469.225 318, 481.314 305.858, 485.063 300.409 L 488.167 295.897 488.167 291.402 C 488.167 288.929, 487.624 286.252, 486.961 285.453 L 485.755 284 478.411 284 L 471.068 284 467.284 285.645 C 460.147 288.747, 457 290.456, 457 291.227 C 457 291.652, 456.498 292, 455.884 292 C 455.270 292, 452.622 293.575, 450 295.500 C 447.378 297.425, 444.721 299, 444.096 299 C 443.471 299, 441.178 300.125, 439 301.500 C 436.822 302.875, 433.996 304, 432.720 304 C 431.444 304, 429.836 304.563, 429.148 305.250 L 427.895 306.500 412.497 306.500 L 397.099 306.500 395.849 305.250 C 395.162 304.563, 393.565 304, 392.300 304 C 391.035 304, 390 303.550, 390 303 C 390 302.450, 389.178 302, 388.174 302 C 387.170 302, 385.292 300.875, 384 299.500 C 382.708 298.125, 381.167 296.997, 380.576 296.994 C 378.869 296.985, 368.191 286.266, 365.315 281.675 C 363.878 279.379, 362.420 277.275, 362.076 277 C 361.733 276.725, 360.247 274.137, 358.774 271.250 L 356.096 266 357.848 266 C 358.812 266, 360.093 265.507, 360.695 264.905 L 361.790 263.810 428.645 263.346 C 465.415 263.092, 496.512 262.676, 497.750 262.423 L 500 261.962 500 244.302 L 500 226.642 498.877 223.071 C 498.260 221.107, 497.360 218.719, 496.877 217.764 C 496.395 216.809, 496 215.401, 496 214.636 C 496 213.871, 495.325 212.685, 494.500 212 C 493.675 211.315, 493 209.910, 493 208.878 C 493 207.845, 492.550 207, 492 207 C 491.450 207, 491 206.595, 491 206.100 C 491 202.564, 473.525 182.450, 467.845 179.449 C 466.384 178.678, 464.584 177.473, 463.845 176.772 C 459.057 172.232, 442.638 164, 438.371 164 C 436.737 164, 434.838 163.438, 434.151 162.750 L 432.901 161.500 416.701 161.361 C 407.790 161.285, 398.925 161.429, 397 161.682 M 409 189.955 C 408.175 190.513, 405.389 190.976, 402.809 190.985 C 400.229 190.993, 397.840 191.450, 397.500 192 C 397.160 192.550, 395.614 193, 394.063 193 C 392.513 193, 390.685 193.675, 390 194.500 C 389.315 195.325, 387.910 196, 386.878 196 C 385.845 196, 385 196.378, 385 196.839 C 385 197.301, 383.854 198.201, 382.453 198.839 C 379.698 200.095, 366.006 212.977, 366.002 214.317 C 366.001 214.766, 364.875 216.608, 363.500 218.411 C 362.125 220.214, 361 222.154, 361 222.722 C 361 223.290, 360.325 224.315, 359.500 225 C 357.702 226.492, 357.524 231.124, 359.200 232.800 L 360.400 234 413.214 234 L 466.027 234 468.264 232.750 C 469.494 232.063, 470.632 231.443, 470.793 231.374 C 471.189 231.203, 466.436 221.352, 463.858 217 C 461.125 212.385, 450.348 202.016, 445.692 199.523 C 443.661 198.435, 442 197.198, 442 196.773 C 442 196.348, 440.988 195.986, 439.750 195.968 C 438.512 195.951, 436.626 195.276, 435.559 194.468 C 434.491 193.661, 432.804 193, 431.809 193 C 430.814 193, 430 192.595, 430 192.101 C 430 191.229, 425.843 190.465, 415.500 189.437 L 410.500 188.940 409 189.955" stroke="none" fill="#f34334" fill-rule="evenodd"/></svg>